<?xml version="1.0" standalone="no"?>
<!DOCTYPE svg PUBLIC "-//W3C//DTD SVG 20010904//EN"
 "http://www.w3.org/TR/2001/REC-SVG-20010904/DTD/svg10.dtd">
<svg version="1.0" xmlns="http://www.w3.org/2000/svg"
 width="150.000000pt" height="132.000000pt" viewBox="0 0 1280.000000 1280.000000"
 preserveAspectRatio="xMidYMid meet">

<g transform="translate(0.000000,1280.000000) scale(0.100000,-0.100000)"
fill="#000000" stroke="none">
<path d="M4480 12731 c-842 -395 -1530 -999 -1994 -1749 -414 -670 -633 -1370
-664 -2127 -18 -428 20 -850 109 -1224 l29 -124 -634 -1151 c-458 -831 -730
-1339 -980 -1827 l-346 -677 0 -401 0 -401 337 2 338 3 358 650 c197 358 595
1080 884 1605 289 525 533 968 543 983 l17 29 93 -139 c170 -252 331 -451 556
-683 l93 -95 -666 -1165 c-366 -641 -667 -1171 -670 -1177 -4 -10 117 -13 585
-13 l589 0 404 720 404 720 388 0 388 0 127 -49 c126 -49 260 -93 380 -126
l62 -18 0 -1028 0 -1029 1140 0 1140 0 0 1004 0 1004 88 21 c153 38 328 91
469 143 76 27 154 54 173 60 24 7 164 9 434 4 220 -4 401 -8 401 -9 1 -1 172
-317 380 -702 208 -385 381 -703 384 -708 4 -4 269 -6 589 -5 l581 3 -389 700
c-215 385 -390 703 -390 708 0 4 273 6 607 5 l608 -3 381 -705 382 -705 306
-3 306 -2 0 544 0 543 -389 674 -389 674 -1132 3 -1131 2 104 113 c203 217
356 414 511 655 l79 122 533 0 c294 0 534 2 534 5 0 3 -133 247 -295 541 -162
295 -295 544 -295 553 0 9 13 70 30 136 165 674 160 1444 -15 2120 -166 641
-492 1270 -923 1780 -106 125 -417 436 -537 536 -338 283 -721 523 -1139 713
l-78 36 -729 0 -729 0 0 -190 c0 -104 1 -190 3 -190 37 0 243 -32 250 -39 13
-13 416 -745 412 -749 -1 -2 -48 11 -104 27 -116 35 -298 74 -416 90 -44 6
-95 14 -113 17 l-32 5 2 -362 3 -363 110 -22 c314 -62 530 -144 789 -298 148
-88 276 -179 381 -272 62 -54 71 -69 436 -732 205 -372 378 -693 385 -712 20
-58 37 -324 30 -460 -17 -303 -70 -540 -182 -808 -47 -112 -162 -332 -174
-332 -3 0 -251 433 -551 963 l-544 962 -5 450 -5 450 -251 3 -250 2 -264 468
c-145 257 -268 473 -273 480 -7 9 -85 -120 -282 -465 l-272 -478 -339 -5 -339
-5 -5 -600 -5 -600 -455 -797 c-250 -439 -457 -798 -461 -798 -18 0 -149 273
-205 428 -121 331 -162 754 -108 1110 l14 94 356 646 c220 401 370 662 392
685 114 119 358 286 587 403 190 96 410 171 619 213 l141 28 3 353 c1 195 -1
357 -6 362 -19 19 -433 -63 -636 -126 -44 -14 -47 -14 -42 1 11 29 398 728
410 740 8 9 220 43 268 43 4 0 8 86 8 190 l0 190 -732 0 -733 -1 -145 -68z
m4191 -978 c201 -133 380 -282 579 -482 305 -306 499 -569 691 -936 215 -411
341 -818 394 -1270 20 -172 32 -554 16 -540 -6 6 -403 724 -882 1595 -479 872
-889 1618 -911 1659 -23 41 -35 70 -27 66 8 -5 71 -46 140 -92z m-5226 -1553
c-492 -892 -897 -1626 -901 -1629 -11 -10 4 365 21 509 124 1067 736 2051
1668 2680 56 38 103 68 104 66 2 -1 -400 -733 -892 -1626z m3268 -1540 l247
-440 0 -405 0 -405 -530 0 -530 0 0 395 0 395 258 450 c231 405 259 450 282
449 22 0 50 -44 273 -439z m-3348 -935 c22 -73 62 -180 112 -302 4 -10 -39
-13 -196 -13 -111 0 -201 2 -201 4 0 2 55 104 122 226 103 188 123 219 129
199 4 -13 19 -64 34 -114z m6316 -92 c63 -114 116 -211 117 -215 2 -4 -84 -8
-191 -8 l-195 0 43 108 c24 59 58 155 77 214 18 60 34 108 34 108 1 0 53 -93
115 -207z m-5388 -1326 c205 -182 445 -341 719 -475 l197 -97 1 -122 0 -123
-463 0 -463 0 -88 60 c-309 211 -649 530 -865 813 -13 16 9 17 433 17 l447 0
82 -73z m2667 18 c0 -61 5 -57 -95 -73 l-50 -7 -3 -364 -2 -363 27 6 c16 2 49
8 76 11 45 6 47 5 47 -19 l0 -26 -530 0 -530 0 0 26 0 27 68 -8 c37 -4 78 -8
92 -8 l25 -2 3 357 2 358 -22 4 c-13 3 -54 11 -93 18 l-70 13 -3 53 -3 52 530
0 531 0 0 -55z m2610 49 c0 -12 -112 -145 -226 -268 -172 -188 -414 -397 -631
-546 l-101 -70 -561 0 -561 0 0 88 0 87 123 44 c327 118 764 385 1022 624 l50
46 443 1 c243 0 442 -3 442 -6z m-3030 -1034 l35 -10 0 -347 c0 -192 -4 -354
-8 -360 -5 -8 -30 -13 -63 -13 l-54 0 0 364 c0 339 1 365 18 369 28 8 35 7 72
-3z m205 -46 c58 -57 70 -114 70 -319 -1 -111 -5 -196 -13 -221 -22 -77 -71
-128 -138 -148 -20 -6 -22 -2 -27 51 -4 55 -3 59 24 81 l29 23 0 220 0 219
-25 12 c-22 10 -25 17 -25 68 0 31 3 59 6 63 11 11 66 -16 99 -49z m533 -6 l3
-58 -121 0 -120 0 0 -37 c0 -21 -3 -61 -6 -89 l-6 -51 76 5 77 5 -3 -64 -3
-64 -67 -3 -68 -3 0 -48 c0 -27 -3 -70 -6 -96 l-7 -47 39 2 c21 2 76 2 122 1
l82 -1 0 -64 c0 -36 -4 -67 -8 -70 -5 -3 -86 -2 -180 1 l-172 6 0 362 c0 199
3 365 7 369 4 3 86 5 182 4 l176 -3 3 -57z m-1631 -45 c25 -54 54 -120 64
-146 10 -26 48 -109 84 -184 62 -129 65 -140 67 -215 0 -43 -2 -81 -5 -84 -3
-3 -15 -3 -27 1 -16 5 -37 40 -77 124 -30 64 -99 205 -154 314 -74 149 -99
208 -99 237 0 38 1 39 43 43 23 2 46 4 50 5 5 1 29 -42 54 -95z m207 75 c11
-52 13 -379 2 -375 -6 2 -13 17 -17 33 -3 16 -27 71 -52 123 -42 83 -47 100
-47 160 0 37 3 71 7 74 3 4 28 7 54 7 42 0 49 -3 53 -22z m270 6 c13 -35 6
-95 -16 -124 -21 -28 -21 -35 -15 -237 6 -192 8 -209 27 -225 16 -13 20 -28
20 -72 0 -56 0 -56 -30 -56 -48 0 -96 53 -115 125 -23 85 -31 332 -15 434 14
91 32 121 88 151 46 24 48 24 56 4z m148 -25 c39 -28 54 -61 67 -149 15 -95
15 -312 0 -399 -10 -57 -17 -71 -51 -104 -26 -25 -48 -37 -62 -35 -18 3 -21
10 -24 64 -2 45 1 64 13 74 13 10 15 45 15 220 0 194 -1 208 -20 225 -16 14
-20 31 -20 78 l0 59 27 -7 c15 -3 39 -15 55 -26z m-746 -241 c3 -13 31 -75 61
-138 57 -118 61 -144 54 -291 -1 -20 -79 -33 -116 -19 l-25 10 0 230 c0 214 7
268 26 208z m1284 -744 l0 -167 75 7 75 7 0 -261 0 -260 -530 0 -530 0 0 261
0 261 95 -7 95 -7 0 166 0 166 360 0 360 0 0 -166z"/>
</g>
</svg>
